<svg width="295" height="295" viewBox="0 0 295 295" fill="none" xmlns="http://www.w3.org/2000/svg">
<g clip-path="url(#clip0)">
<path d="M286.36 98.016C273.137 60.925 246.262 31.203 210.685 14.325C175.109 -2.554 135.088 -4.567 97.997 8.656C60.906 21.879 31.183 48.754 14.305 84.331C-2.57203 119.908 -4.58503 159.928 8.63697 197.02C9.74997 200.142 13.184 201.768 16.304 200.657C19.426 199.544 21.054 196.112 19.941 192.99C7.79397 158.918 9.64297 122.155 25.147 89.474C40.651 56.793 67.954 32.105 102.026 19.959C136.098 7.813 172.862 9.663 205.542 25.166C238.224 40.67 262.911 67.973 275.058 102.045C287.204 136.117 285.355 172.88 269.851 205.561C254.347 238.242 227.044 262.93 192.972 275.076C154.783 288.689 112.89 284.569 78.037 263.772C75.189 262.073 71.508 263.004 69.81 265.85C68.112 268.696 69.042 272.379 71.888 274.077C95.095 287.925 121.164 294.98 147.429 294.979C164.103 294.979 180.859 292.134 197.001 286.38C234.093 273.157 263.814 246.282 280.692 210.705C297.57 175.127 299.583 135.107 286.36 98.016Z" fill="#0F3282"/>
<path d="M213.499 147.518C213.499 144.205 210.812 141.518 207.499 141.518H58.069C54.755 141.518 52.069 144.205 52.069 147.518C52.069 150.831 54.755 153.518 58.069 153.518H207.499C210.812 153.518 213.499 150.831 213.499 147.518Z" fill="#0F3282"/>
<path d="M165.686 210.275C163.342 212.618 163.342 216.417 165.686 218.76C166.857 219.931 168.393 220.517 169.928 220.517C171.463 220.517 172.999 219.931 174.17 218.76L241.17 151.76C243.514 149.417 243.514 145.618 241.17 143.275L174.17 76.275C171.828 73.932 168.027 73.932 165.686 76.275C163.342 78.618 163.342 82.417 165.686 84.76L228.443 147.517L165.686 210.275Z" fill="#0F3282"/>
</g>
<defs>
<clipPath id="clip0">
<rect width="294.997" height="294.997" fill="white"/>
</clipPath>
</defs>
</svg>
