<svg width="512" height="512" viewBox="0 0 512 512" fill="none" xmlns="http://www.w3.org/2000/svg">
<path d="M486 19H26C24.1435 19 22.363 19.7375 21.0503 21.0503C19.7375 22.363 19 24.1435 19 26V486C19 487.857 19.7375 489.637 21.0503 490.95C22.363 492.262 24.1435 493 26 493H486C487.857 493 489.637 492.262 490.95 490.95C492.262 489.637 493 487.857 493 486V26C493 24.1435 492.262 22.363 490.95 21.0503C489.637 19.7375 487.857 19 486 19V19ZM33 33H479V89.768H33V33ZM33 479V103.768H479V479H33Z" fill="#0F3282"/>
<path d="M424.02 42.4C420.262 42.4 416.589 43.5144 413.464 45.6021C410.34 47.6898 407.904 50.6572 406.466 54.129C405.028 57.6008 404.652 61.4211 405.385 65.1067C406.118 68.7924 407.928 72.1779 410.585 74.8351C413.242 77.4923 416.628 79.3018 420.313 80.0349C423.999 80.7681 427.819 80.3918 431.291 78.9537C434.763 77.5157 437.73 75.0804 439.818 71.9559C441.906 68.8313 443.02 65.1579 443.02 61.4C443.014 56.3629 441.01 51.5338 437.448 47.972C433.886 44.4102 429.057 42.4064 424.02 42.4V42.4ZM424.02 66.4C423.031 66.4 422.064 66.1068 421.242 65.5574C420.42 65.008 419.779 64.2271 419.401 63.3134C419.022 62.3998 418.923 61.3945 419.116 60.4246C419.309 59.4547 419.785 58.5638 420.485 57.8645C421.184 57.1652 422.075 56.689 423.045 56.4961C424.014 56.3032 425.02 56.4022 425.933 56.7806C426.847 57.1591 427.628 57.7999 428.177 58.6222C428.727 59.4444 429.02 60.4111 429.02 61.4C429.018 62.7255 428.49 63.996 427.553 64.9332C426.616 65.8704 425.345 66.3979 424.02 66.4Z" fill="#0F3282"/>
<path d="M365.048 42.4C361.29 42.4 357.617 43.5144 354.492 45.6021C351.368 47.6898 348.932 50.6572 347.494 54.129C346.056 57.6008 345.68 61.4211 346.413 65.1067C347.146 68.7924 348.956 72.1779 351.613 74.8351C354.27 77.4923 357.656 79.3018 361.341 80.0349C365.027 80.7681 368.847 80.3918 372.319 78.9537C375.791 77.5157 378.758 75.0804 380.846 71.9559C382.934 68.8313 384.048 65.1579 384.048 61.4C384.042 56.3629 382.038 51.5338 378.476 47.972C374.914 44.4102 370.085 42.4064 365.048 42.4V42.4ZM365.048 66.4C364.059 66.4 363.092 66.1068 362.27 65.5574C361.448 65.008 360.807 64.2271 360.429 63.3134C360.05 62.3998 359.951 61.3945 360.144 60.4246C360.337 59.4547 360.813 58.5638 361.512 57.8645C362.212 57.1652 363.103 56.689 364.073 56.4961C365.042 56.3032 366.048 56.4022 366.961 56.7806C367.875 57.1591 368.656 57.7999 369.205 58.6222C369.755 59.4444 370.048 60.4111 370.048 61.4C370.047 62.7258 369.52 63.9969 368.582 64.9344C367.645 65.8718 366.374 66.399 365.048 66.4V66.4Z" fill="#0F3282"/>
<path d="M306.072 42.4C302.314 42.4 298.641 43.5144 295.516 45.6021C292.392 47.6898 289.956 50.6572 288.518 54.129C287.08 57.6008 286.704 61.4211 287.437 65.1067C288.17 68.7924 289.98 72.1779 292.637 74.8351C295.294 77.4923 298.68 79.3018 302.365 80.0349C306.051 80.7681 309.871 80.3918 313.343 78.9537C316.815 77.5157 319.782 75.0804 321.87 71.9559C323.958 68.8313 325.072 65.1579 325.072 61.4C325.066 56.3629 323.062 51.5338 319.5 47.972C315.938 44.4102 311.109 42.4064 306.072 42.4V42.4ZM306.072 66.4C305.083 66.4 304.116 66.1068 303.294 65.5574C302.472 65.008 301.831 64.2271 301.453 63.3134C301.074 62.3998 300.975 61.3945 301.168 60.4246C301.361 59.4547 301.837 58.5638 302.537 57.8645C303.236 57.1652 304.127 56.689 305.097 56.4961C306.067 56.3032 307.072 56.4022 307.985 56.7806C308.899 57.1591 309.68 57.7999 310.229 58.6222C310.779 59.4444 311.072 60.4111 311.072 61.4C311.07 62.7255 310.542 63.996 309.605 64.9332C308.668 65.8704 307.397 66.3979 306.072 66.4V66.4Z" fill="#0F3282"/>
<path d="M449.88 125.76H276.68C274.824 125.761 273.044 126.499 271.731 127.811C270.419 129.124 269.681 130.904 269.68 132.76V179.6H242.32V132.76C242.319 130.904 241.581 129.124 240.269 127.811C238.956 126.499 237.176 125.761 235.32 125.76H62.12C60.2635 125.76 58.483 126.498 57.1703 127.81C55.8575 129.123 55.12 130.903 55.12 132.76V279.12C55.1195 280.039 55.3002 280.95 55.6518 281.799C56.0034 282.649 56.519 283.421 57.1691 284.071C57.8192 284.721 58.5911 285.237 59.4406 285.588C60.2901 285.94 61.2006 286.121 62.12 286.12H111.92V307.668H62C60.1435 307.668 58.363 308.406 57.0503 309.718C55.7375 311.031 55 312.811 55 314.668C55 316.525 55.7375 318.305 57.0503 319.618C58.363 320.93 60.1435 321.668 62 321.668H111.92V340.108H62C60.1435 340.108 58.363 340.846 57.0503 342.158C55.7375 343.471 55 345.251 55 347.108C55 348.965 55.7375 350.745 57.0503 352.058C58.363 353.37 60.1435 354.108 62 354.108H118.8C118.839 354.11 118.877 354.11 118.916 354.108H269.68V415.228C269.681 417.084 270.419 418.864 271.731 420.177C273.044 421.489 274.824 422.227 276.68 422.228H449.88C451.737 422.228 453.517 421.49 454.83 420.178C456.142 418.865 456.88 417.085 456.88 415.228V132.76C456.88 130.903 456.142 129.123 454.83 127.81C453.517 126.498 451.737 125.76 449.88 125.76V125.76ZM69.12 272.12V139.76H228.32V179.6H118.92C117.064 179.601 115.284 180.339 113.971 181.651C112.659 182.964 111.921 184.744 111.92 186.6V272.12H69.12ZM125.92 193.6H352.72C354.177 201.91 358.16 209.569 364.127 215.534C370.093 221.499 377.754 225.481 386.064 226.936V340.136H125.92V193.6ZM393.088 213.6C387.748 213.6 382.528 212.016 378.088 209.05C373.647 206.083 370.187 201.866 368.143 196.932C366.1 191.999 365.565 186.57 366.607 181.333C367.649 176.095 370.22 171.284 373.996 167.508C377.772 163.732 382.583 161.161 387.821 160.119C393.058 159.077 398.487 159.612 403.42 161.655C408.354 163.699 412.571 167.159 415.538 171.6C418.504 176.04 420.088 181.26 420.088 186.6C420.08 193.758 417.232 200.621 412.171 205.683C407.109 210.744 400.246 213.592 393.088 213.6V213.6ZM442.88 408.24H283.68V354.12H393.08C394.937 354.12 396.717 353.382 398.03 352.07C399.343 350.757 400.08 348.977 400.08 347.12V226.94C407.479 225.662 414.386 222.376 420.044 217.44C425.703 212.504 429.896 206.108 432.167 198.95C434.437 191.793 434.697 184.149 432.918 176.854C431.139 169.558 427.389 162.892 422.079 157.583C416.769 152.274 410.102 148.527 402.806 146.75C395.51 144.972 387.867 145.234 380.71 147.506C373.553 149.778 367.158 153.973 362.223 159.633C357.288 165.293 354.004 172.2 352.728 179.6H283.68V139.76H442.88V408.24Z" fill="#0F3282"/>
<path d="M235.332 372.552H62C60.1435 372.552 58.363 373.29 57.0503 374.602C55.7375 375.915 55 377.695 55 379.552C55 381.409 55.7375 383.189 57.0503 384.502C58.363 385.814 60.1435 386.552 62 386.552H235.332C237.189 386.552 238.969 385.814 240.282 384.502C241.595 383.189 242.332 381.409 242.332 379.552C242.332 377.695 241.595 375.915 240.282 374.602C238.969 373.29 237.189 372.552 235.332 372.552Z" fill="#0F3282"/>
<path d="M235.332 404.996H62C60.1435 404.996 58.363 405.734 57.0503 407.046C55.7375 408.359 55 410.139 55 411.996C55 413.853 55.7375 415.633 57.0503 416.946C58.363 418.258 60.1435 418.996 62 418.996H235.332C237.189 418.996 238.969 418.258 240.282 416.946C241.595 415.633 242.332 413.853 242.332 411.996C242.332 410.139 241.595 408.359 240.282 407.046C238.969 405.734 237.189 404.996 235.332 404.996Z" fill="#0F3282"/>
<path d="M406.524 173.148C405.211 171.836 403.43 171.099 401.574 171.099C399.718 171.099 397.937 171.836 396.624 173.148L393.088 176.684L389.552 173.148C388.232 171.873 386.463 171.168 384.628 171.184C382.792 171.201 381.037 171.937 379.739 173.235C378.442 174.533 377.706 176.289 377.69 178.125C377.675 179.96 378.381 181.728 379.656 183.048L383.192 186.584L379.656 190.12C378.987 190.766 378.454 191.538 378.087 192.392C377.72 193.246 377.526 194.164 377.518 195.094C377.51 196.023 377.687 196.945 378.039 197.805C378.39 198.666 378.91 199.447 379.567 200.105C380.224 200.762 381.006 201.282 381.866 201.634C382.726 201.986 383.648 202.164 384.577 202.156C385.507 202.148 386.425 201.955 387.279 201.588C388.134 201.222 388.906 200.688 389.552 200.02L393.088 196.484L396.624 200.02C397.937 201.333 399.717 202.07 401.574 202.07C403.431 202.07 405.211 201.333 406.524 200.02C407.837 198.707 408.574 196.927 408.574 195.07C408.574 193.213 407.837 191.433 406.524 190.12L402.988 186.584L406.524 183.048C407.836 181.735 408.573 179.954 408.573 178.098C408.573 176.242 407.836 174.461 406.524 173.148V173.148Z" fill="#0F3282"/>
<path d="M169.332 241.404H342.668C344.525 241.404 346.305 240.666 347.618 239.354C348.931 238.041 349.668 236.261 349.668 234.404C349.668 232.547 348.931 230.767 347.618 229.454C346.305 228.141 344.525 227.404 342.668 227.404H169.332C167.476 227.404 165.695 228.141 164.382 229.454C163.07 230.767 162.332 232.547 162.332 234.404C162.332 236.261 163.07 238.041 164.382 239.354C165.695 240.666 167.476 241.404 169.332 241.404V241.404Z" fill="#0F3282"/>
<path d="M169.332 273.848H342.668C344.525 273.848 346.305 273.111 347.618 271.798C348.931 270.485 349.668 268.705 349.668 266.848C349.668 264.991 348.931 263.211 347.618 261.898C346.305 260.585 344.525 259.848 342.668 259.848H169.332C167.476 259.848 165.695 260.585 164.382 261.898C163.07 263.211 162.332 264.991 162.332 266.848C162.332 268.705 163.07 270.485 164.382 271.798C165.695 273.111 167.476 273.848 169.332 273.848Z" fill="#0F3282"/>
<path d="M349.668 299.288C349.668 297.431 348.931 295.651 347.618 294.338C346.305 293.026 344.525 292.288 342.668 292.288H169.332C167.476 292.288 165.695 293.026 164.382 294.338C163.07 295.651 162.332 297.431 162.332 299.288C162.332 301.145 163.07 302.925 164.382 304.238C165.695 305.551 167.476 306.288 169.332 306.288H342.668C344.525 306.288 346.305 305.551 347.618 304.238C348.931 302.925 349.668 301.145 349.668 299.288V299.288Z" fill="#0F3282"/>
</svg>
