<svg width="512" height="512" viewBox="0 0 512 512" fill="none" xmlns="http://www.w3.org/2000/svg">
<path d="M187.235 318.445H157.211C147.86 318.445 140.25 310.84 140.25 301.484V284.75C140.25 283.762 139.551 282.906 138.516 282.621C128.106 279.785 118.067 275.613 108.68 270.227C107.829 269.738 106.825 269.836 106.188 270.473L94.2349 282.426C91.0317 285.629 86.7739 287.391 82.2427 287.391C77.7153 287.391 73.4536 285.629 70.2505 282.426L49.02 261.195C45.8169 257.992 44.0513 253.73 44.0513 249.203C44.0513 244.672 45.8169 240.41 49.02 237.211L60.9692 225.258C61.6099 224.621 61.7075 223.617 61.2153 222.766C55.8325 213.379 51.6606 203.34 48.8247 192.93C48.5396 191.895 47.6841 191.195 46.6958 191.195H29.9614C20.6099 191.195 13.0005 183.586 13.0005 174.234V144.211C13.0005 134.859 20.6099 127.25 29.9614 127.25H46.6958C47.6841 127.25 48.5396 126.555 48.8247 125.516C51.6606 115.109 55.8325 105.07 61.2192 95.6797C61.7075 94.8281 61.6099 93.8242 60.9731 93.1875L49.02 81.2344C45.8169 78.0352 44.0513 73.7734 44.0513 69.2422C44.0513 64.7148 45.8169 60.4531 49.02 57.25L70.2505 36.0195C73.4536 32.8164 77.7114 31.0547 82.2427 31.0547C86.7739 31.0547 91.0356 32.8164 94.2388 36.0234L106.188 47.9727C106.825 48.6094 107.825 48.707 108.68 48.2188C118.067 42.832 128.102 38.6641 138.512 35.8242C139.555 35.5391 140.25 34.6836 140.25 33.6953V16.9609C140.25 7.60937 147.86 0 157.211 0H187.235C196.586 0 204.196 7.60937 204.196 16.9609V33.6953C204.196 34.6836 204.891 35.5391 205.93 35.8203C216.336 38.6602 226.375 42.832 235.762 48.2188C236.618 48.707 237.618 48.6094 238.258 47.9727L250.208 36.0195C256.836 29.3945 267.567 29.3906 274.196 36.0234L276.442 38.2695C283.454 45.2773 272.856 55.8945 265.836 48.875C264.454 47.6797 262.68 44.7617 260.817 46.6289L248.864 58.5781C243.458 63.9844 235 65.0742 228.297 61.2266C220.016 56.4766 211.161 52.7969 201.985 50.293C194.454 48.2422 189.192 41.4141 189.192 33.6914V16.9609C189.192 15.8789 188.313 15 187.231 15H157.208C156.129 15 155.25 15.8789 155.25 16.9609V33.6953C155.25 41.418 149.989 48.2422 142.458 50.2969C133.278 52.8008 124.422 56.4766 116.141 61.2266C109.442 65.0742 100.985 63.9844 95.5786 58.5781L83.6294 46.6289C83.1528 46.1523 82.6138 46.0547 82.2427 46.0547C81.8716 46.0547 81.3325 46.1523 80.8599 46.6289L59.6255 67.8594C59.1528 68.332 59.0513 68.875 59.0513 69.2422C59.0513 69.6133 59.1528 70.1563 59.6255 70.6289L71.5786 82.582C76.9849 87.9883 78.0747 96.4414 74.2271 103.145C69.4771 111.43 65.7974 120.281 63.2935 129.461C61.2427 136.992 54.4146 142.25 46.6958 142.25H29.9614C28.8794 142.25 28.0005 143.133 28.0005 144.211V174.234C28.0005 175.316 28.8794 176.195 29.9614 176.195H46.6958C54.4146 176.195 61.2427 181.453 63.2974 188.984C65.7974 198.168 69.4771 207.02 74.2271 215.301C78.0747 222.004 76.9849 230.457 71.5786 235.863L59.6294 247.816C59.1528 248.289 59.0552 248.832 59.0552 249.203C59.0552 249.57 59.1567 250.113 59.6294 250.59L80.8599 271.816C81.6255 272.582 82.8677 272.586 83.6333 271.816L95.5825 259.867C100.989 254.461 109.446 253.371 116.149 257.219C124.43 261.969 133.282 265.648 142.461 268.152C149.993 270.203 155.254 277.031 155.254 284.754V301.484C155.254 302.566 156.133 303.445 157.211 303.445H187.235C188.317 303.445 189.196 302.566 189.196 301.484V284.754C189.196 277.031 194.458 270.203 201.989 268.152C211.571 265.543 215.5 280.016 205.934 282.621C204.895 282.906 204.196 283.762 204.196 284.754V301.484C204.196 310.836 196.586 318.445 187.235 318.445V318.445Z" fill="#0F3282"/>
<path d="M101.535 159.222C101.535 109.629 151.403 75.6326 197.356 93.1405C206.617 96.6756 201.293 110.695 192.012 107.16C155.746 93.3358 116.531 120.258 116.531 159.222C116.531 190.918 143.227 216.707 175.547 214.812C185.43 214.215 186.356 229.203 176.43 229.789C135.676 232.187 101.535 199.687 101.535 159.222Z" fill="#0F3282"/>
<path d="M428.039 333.051L352.047 318.273V299.496C373.387 284.937 384.942 264.32 387.457 241.164C398.535 240.285 407.278 230.992 407.278 219.695V204.281C425.336 196.43 422.899 170.074 403.793 165.629V159.68C403.793 106.191 360.43 62.828 306.946 62.828H298.824C245.336 62.828 201.977 106.191 201.977 159.676V165.629C182.879 170.07 180.426 196.43 198.492 204.281V219.695C198.492 230.992 207.235 240.285 218.313 241.164C220.508 261.367 229.977 279.859 244.914 292.719C247.774 295.183 250.711 297.441 253.723 299.496V318.273L177.731 333.051C137.637 340.848 106.387 363.449 106.387 405.152V481.437C106.387 498.316 120.071 512 136.949 512H468.821C485.699 512 499.383 498.316 499.383 481.437V405.152C499.383 363.586 468.324 340.883 428.039 333.051V333.051ZM365.614 336.191C360.168 344.109 351.844 356.195 342.852 369.211C339.188 374.519 332.614 375.195 330.043 373.656L318.196 366.551C329.75 359.726 345.739 348.008 350.59 333.269L365.614 336.191ZM302.883 357.805C291.492 352.07 268.785 337.902 268.723 324.512C268.723 324.492 268.723 324.473 268.723 324.453V307.777C290.551 317.191 315.192 317.203 337.047 307.777V324.453C337.047 337.867 314.285 352.066 302.883 357.805ZM216.977 159.676C216.977 128.91 234.039 102.055 259.199 88.078V97.4803C259.199 107.394 274.199 107.41 274.199 97.4803V81.6132C280.93 79.4843 288.031 78.2069 295.383 77.9022V114.988C295.383 124.902 310.383 124.918 310.383 114.988V77.9022C317.735 78.2069 324.84 79.4843 331.571 81.6132V97.4803C331.571 107.394 346.571 107.41 346.571 97.4803V88.078C371.731 102.055 388.793 128.91 388.793 159.676V165.098H216.977V159.676ZM206.61 180.098H399.16C406.348 180.098 406.34 190.961 399.16 190.961H206.61C199.418 190.961 199.426 180.098 206.61 180.098V180.098ZM232.836 233.57C232.75 229.492 229.418 226.23 225.336 226.23C224.086 225.922 213.489 228.18 213.489 219.695V205.965H392.278V219.695C392.278 228.164 381.399 225.992 380.43 226.23C376.352 226.23 373.02 229.492 372.93 233.57C372.528 252.32 364.559 269.734 351.071 281.351C322.426 306.016 283.344 306.019 254.699 281.351C241.207 269.734 233.239 252.32 232.836 233.57ZM255.176 333.269C260.031 348.008 276.016 359.726 287.574 366.551C275.699 372.91 276.539 374.812 271.145 374.176C267.789 373.773 264.778 371.906 262.856 369.125C253.887 356.141 245.59 344.09 240.153 336.191L255.176 333.269ZM168.641 497H136.946C128.352 497 121.383 490.031 121.383 481.437V405.152C121.383 382.676 131.594 367.137 153.992 356.402C154.899 360.394 168.641 397.695 168.641 449.816V497ZM295.383 497H183.641V449.816C183.641 393.344 169.383 356.98 167.981 350.824C176.739 347.914 170.235 350.156 224.098 339.312C239.578 361.808 268.469 403.781 285.5 427.988C291.969 437.18 295.383 447.976 295.383 459.215V497ZM302.883 427.848C301.391 424.922 299.684 422.086 297.77 419.359C292.012 411.18 284.539 400.445 276.742 389.191C279.059 388.68 281.321 387.789 283.442 386.519L302.883 374.859L322.328 386.519C324.446 387.789 326.711 388.68 329.028 389.191C321.231 400.437 313.758 411.172 308 419.359C306.082 422.086 304.375 424.922 302.883 427.848V427.848ZM484.383 481.437C484.383 490.031 477.418 497 468.821 497H437.125V468.703C437.125 458.789 422.125 458.773 422.125 468.703V497H310.383V459.215C310.383 447.976 313.801 437.18 320.266 427.992C329.953 414.223 369.84 356.664 381.672 339.312C435.508 350.152 429.016 347.91 437.785 350.824C436.696 355.437 424.074 389.738 422.332 438.394C421.973 448.332 436.965 448.82 437.321 438.933C439.008 391.848 450.559 361.551 451.774 356.402C474.172 367.137 484.383 382.676 484.383 405.148V481.437Z" fill="#0F3282"/>
</svg>
