<svg width="512" height="512" viewBox="0 0 512 512" fill="none" xmlns="http://www.w3.org/2000/svg">
<g clip-path="url(#clip0)">
<path d="M230.4 294.4C230.4 299.113 234.221 302.933 238.933 302.933C243.646 302.933 247.467 299.113 247.467 294.4C247.467 266.172 221.355 242.842 187.733 239.411V230.4C187.733 225.687 183.913 221.867 179.2 221.867C174.487 221.867 170.667 225.687 170.667 230.4V239.411C137.045 242.825 110.933 266.172 110.933 294.4C110.933 322.628 137.045 345.958 170.667 349.389V426.086C146.492 423.032 128 407.253 128 388.267C128 383.554 124.18 379.733 119.467 379.733C114.754 379.733 110.933 383.554 110.933 388.267C110.933 416.495 137.045 439.825 170.667 443.256V452.267C170.667 456.98 174.487 460.8 179.2 460.8C183.913 460.8 187.733 456.98 187.733 452.267V443.256C221.355 439.842 247.467 416.495 247.467 388.267C247.467 360.038 221.355 336.708 187.733 333.278V256.58C211.908 259.635 230.4 275.413 230.4 294.4ZM128 294.4C128 275.413 146.492 259.635 170.667 256.58V332.22C146.492 329.165 128 313.387 128 294.4ZM230.4 388.267C230.4 407.253 211.908 423.032 187.733 426.086V350.447C211.908 353.502 230.4 369.28 230.4 388.267Z" fill="#FEFEFE"/>
<path d="M30.72 257.476C26.4455 255.492 21.372 257.349 19.3877 261.623C6.54439 289.264 -0.073983 319.388 3.18422e-06 349.867C3.18422e-06 457.446 60.288 512 179.2 512C203.227 512.378 227.201 509.615 250.513 503.782C255.068 502.571 257.779 497.897 256.567 493.342C255.356 488.787 250.682 486.076 246.127 487.287C224.238 492.693 201.744 495.263 179.2 494.933C70.1013 494.933 17.0667 447.479 17.0667 349.867C16.9131 321.858 22.9966 294.166 34.8757 268.8C36.8527 264.525 34.9928 259.457 30.72 257.476V257.476Z" fill="#FEFEFE"/>
<path d="M486.4 213.333H298.667C284.528 213.333 273.067 224.795 273.067 238.933V486.4C273.067 500.539 284.528 512 298.667 512H486.4C500.538 512 512 500.539 512 486.4V238.933C512 224.795 500.538 213.333 486.4 213.333ZM494.933 486.4C494.933 491.113 491.113 494.933 486.4 494.933H298.667C293.954 494.933 290.133 491.113 290.133 486.4V238.933C290.133 234.221 293.954 230.4 298.667 230.4H486.4C491.113 230.4 494.933 234.221 494.933 238.933V486.4Z" fill="#FEFEFE"/>
<path d="M332.8 324.267H452.267C461.692 324.267 469.333 316.626 469.333 307.2V273.067C469.333 263.641 461.692 256 452.267 256H332.8C323.374 256 315.733 263.641 315.733 273.067V307.2C315.733 316.626 323.374 324.267 332.8 324.267ZM332.8 273.067H452.267V307.2H332.8V273.067Z" fill="#FEFEFE"/>
<path d="M349.867 349.867H324.267C319.554 349.867 315.733 353.687 315.733 358.4C315.733 363.113 319.554 366.933 324.267 366.933H349.867C354.58 366.933 358.4 363.113 358.4 358.4C358.4 353.687 354.58 349.867 349.867 349.867Z" fill="#FEFEFE"/>
<path d="M349.867 384H324.267C319.554 384 315.733 387.821 315.733 392.533C315.733 397.246 319.554 401.067 324.267 401.067H349.867C354.58 401.067 358.4 397.246 358.4 392.533C358.4 387.821 354.58 384 349.867 384Z" fill="#FEFEFE"/>
<path d="M349.867 418.133H324.267C319.554 418.133 315.733 421.954 315.733 426.667C315.733 431.379 319.554 435.2 324.267 435.2H349.867C354.58 435.2 358.4 431.379 358.4 426.667C358.4 421.954 354.58 418.133 349.867 418.133Z" fill="#FEFEFE"/>
<path d="M349.867 452.267H324.267C319.554 452.267 315.733 456.087 315.733 460.8C315.733 465.513 319.554 469.333 324.267 469.333H349.867C354.58 469.333 358.4 465.513 358.4 460.8C358.4 456.087 354.58 452.267 349.867 452.267Z" fill="#FEFEFE"/>
<path d="M409.6 349.867H384C379.287 349.867 375.467 353.687 375.467 358.4C375.467 363.113 379.287 366.933 384 366.933H409.6C414.313 366.933 418.133 363.113 418.133 358.4C418.133 353.687 414.313 349.867 409.6 349.867Z" fill="#FEFEFE"/>
<path d="M409.6 384H384C379.287 384 375.467 387.821 375.467 392.533C375.467 397.246 379.287 401.067 384 401.067H409.6C414.313 401.067 418.133 397.246 418.133 392.533C418.133 387.821 414.313 384 409.6 384Z" fill="#FEFEFE"/>
<path d="M409.6 418.133H384C379.287 418.133 375.467 421.954 375.467 426.667C375.467 431.379 379.287 435.2 384 435.2H409.6C414.313 435.2 418.133 431.379 418.133 426.667C418.133 421.954 414.313 418.133 409.6 418.133Z" fill="#FEFEFE"/>
<path d="M409.6 452.267H384C379.287 452.267 375.467 456.087 375.467 460.8C375.467 465.513 379.287 469.333 384 469.333H409.6C414.313 469.333 418.133 465.513 418.133 460.8C418.133 456.087 414.313 452.267 409.6 452.267Z" fill="#FEFEFE"/>
<path d="M469.333 349.867H443.733C439.021 349.867 435.2 353.687 435.2 358.4C435.2 363.113 439.021 366.933 443.733 366.933H469.333C474.046 366.933 477.867 363.113 477.867 358.4C477.867 353.687 474.046 349.867 469.333 349.867Z" fill="#FEFEFE"/>
<path d="M469.333 384H443.733C439.021 384 435.2 387.821 435.2 392.533C435.2 397.246 439.021 401.067 443.733 401.067H469.333C474.046 401.067 477.867 397.246 477.867 392.533C477.867 387.821 474.046 384 469.333 384Z" fill="#FEFEFE"/>
<path d="M469.333 418.133H443.733C439.021 418.133 435.2 421.954 435.2 426.667C435.2 431.379 439.021 435.2 443.733 435.2H469.333C474.046 435.2 477.867 431.379 477.867 426.667C477.867 421.954 474.046 418.133 469.333 418.133Z" fill="#FEFEFE"/>
<path d="M469.333 452.267H443.733C439.021 452.267 435.2 456.087 435.2 460.8C435.2 465.513 439.021 469.333 443.733 469.333H469.333C474.046 469.333 477.867 465.513 477.867 460.8C477.867 456.087 474.046 452.267 469.333 452.267Z" fill="#FEFEFE"/>
<path d="M53.9733 10.7776C31.5051 31.36 70.9803 94.848 94.2421 128H89.6C81.6731 127.971 74.0632 131.111 68.4629 136.721C62.8817 142.345 59.7447 149.944 59.7333 157.867C59.77 168.5 65.4752 178.307 74.7008 183.595C64.7401 194.13 55.3568 205.197 46.592 216.747C43.7643 220.517 44.5284 225.866 48.2987 228.693C52.0689 231.521 57.4176 230.757 60.2453 226.987C70.7857 213.197 82.1861 200.086 94.3787 187.733H268.8C279.47 187.733 289.33 182.041 294.665 172.8C300 163.559 300 152.174 294.665 142.933C289.33 133.693 279.47 128 268.8 128H264.158C287.411 94.848 326.886 31.3685 304.435 10.7776C294.11 1.32266 282.078 8.2176 271.471 14.2507C261.825 20.8563 250.595 24.7737 238.933 25.6C229.676 25.5804 220.851 21.6803 214.605 14.848C205.267 5.35417 192.508 0.0072937 179.191 0.0072937C165.875 0.0072937 153.116 5.35417 143.778 14.848C137.522 21.6912 128.679 25.5924 119.407 25.6C107.752 24.7823 96.527 20.8639 86.8949 14.2507C76.2965 8.20053 64.2731 1.3312 53.9733 10.7776V10.7776ZM277.871 148.804C281.542 152.467 282.642 157.982 280.654 162.772C278.667 167.562 273.986 170.679 268.8 170.667H89.6C82.5308 170.667 76.8 164.936 76.8 157.867C76.8 150.797 82.5308 145.067 89.6 145.067H268.8C272.198 145.068 275.458 146.411 277.871 148.804ZM119.407 42.6667C132.729 42.6648 145.491 37.3119 154.829 27.8101C161.061 20.9637 169.891 17.0614 179.149 17.0614C188.407 17.0614 197.236 20.9637 203.469 27.8101C212.819 37.3192 225.598 42.6724 238.933 42.6667C253.585 41.8969 267.759 37.1986 279.97 29.0645C283.866 26.3147 288.274 24.3735 292.932 23.3557C301.687 31.3771 278.545 79.7525 243.166 128H221.867V85.3333C221.867 80.6205 218.046 76.8 213.333 76.8C208.621 76.8 204.8 80.6205 204.8 85.3333V128H153.6V85.3333C153.6 80.6205 149.779 76.8 145.067 76.8C140.354 76.8 136.533 80.6205 136.533 85.3333V128H115.268C79.8891 79.7525 56.7467 31.3771 65.6213 23.2277C70.1835 24.4463 74.5098 26.4191 78.4213 29.0645C90.6135 37.1975 104.771 41.8961 119.407 42.6667Z" fill="#FEFEFE"/>
</g>
<defs>
<clipPath id="clip0">
<rect width="512" height="512" fill="white"/>
</clipPath>
</defs>
</svg>
