<svg height="512" viewBox="0 0 128 128" width="512" xmlns="http://www.w3.org/2000/svg"><g><path d="m121.5 4.75h-115a1.75 1.75 0 0 0 -1.75 1.75v115a1.75 1.75 0 0 0 1.75 1.75h115a1.75 1.75 0 0 0 1.75-1.75v-115a1.75 1.75 0 0 0 -1.75-1.75zm-113.25 3.5h111.5v14.192h-111.5zm0 111.5v-93.808h111.5v93.808z"/><path d="m106.005 10.6a4.75 4.75 0 1 0 4.75 4.75 4.756 4.756 0 0 0 -4.75-4.75zm0 6a1.25 1.25 0 1 1 1.25-1.25 1.252 1.252 0 0 1 -1.25 1.25z"/><path d="m91.262 10.6a4.75 4.75 0 1 0 4.75 4.75 4.756 4.756 0 0 0 -4.75-4.75zm0 6a1.25 1.25 0 1 1 1.25-1.25 1.251 1.251 0 0 1 -1.25 1.25z"/><path d="m76.518 10.6a4.75 4.75 0 1 0 4.75 4.75 4.756 4.756 0 0 0 -4.75-4.75zm0 6a1.25 1.25 0 1 1 1.25-1.25 1.252 1.252 0 0 1 -1.25 1.25z"/><path d="m112.47 31.44h-43.3a1.751 1.751 0 0 0 -1.75 1.75v11.71h-6.84v-11.71a1.751 1.751 0 0 0 -1.75-1.75h-43.3a1.75 1.75 0 0 0 -1.75 1.75v36.59a1.749 1.749 0 0 0 1.75 1.75h12.45v5.387h-12.48a1.75 1.75 0 0 0 0 3.5h12.48v4.61h-12.48a1.75 1.75 0 0 0 0 3.5h14.2a.285.285 0 0 0 .029 0h37.691v15.28a1.751 1.751 0 0 0 1.75 1.75h43.3a1.75 1.75 0 0 0 1.75-1.75v-70.617a1.75 1.75 0 0 0 -1.75-1.75zm-95.19 36.59v-33.09h39.8v9.96h-27.35a1.751 1.751 0 0 0 -1.75 1.75v21.38zm14.2-19.63h56.7a10.26 10.26 0 0 0 8.336 8.334v28.3h-65.036zm66.792 5a6.75 6.75 0 1 1 6.75-6.75 6.758 6.758 0 0 1 -6.75 6.75zm12.448 48.66h-39.8v-13.53h27.35a1.75 1.75 0 0 0 1.75-1.75v-30.045a10.244 10.244 0 1 0 -11.838-11.835h-17.262v-9.96h39.8z"/><path d="m58.833 93.138h-43.333a1.75 1.75 0 0 0 0 3.5h43.333a1.75 1.75 0 0 0 0-3.5z"/><path d="m58.833 101.249h-43.333a1.75 1.75 0 0 0 0 3.5h43.333a1.75 1.75 0 0 0 0-3.5z"/><path d="m101.631 43.287a1.751 1.751 0 0 0 -2.475 0l-.884.884-.884-.884a1.75 1.75 0 0 0 -2.474 2.475l.884.884-.884.884a1.75 1.75 0 1 0 2.474 2.475l.884-.884.884.884a1.75 1.75 0 0 0 2.475-2.475l-.884-.884.884-.884a1.751 1.751 0 0 0 0-2.475z"/><path d="m42.333 60.351h43.334a1.75 1.75 0 0 0 0-3.5h-43.334a1.75 1.75 0 0 0 0 3.5z"/><path d="m42.333 68.462h43.334a1.75 1.75 0 0 0 0-3.5h-43.334a1.75 1.75 0 0 0 0 3.5z"/><path d="m87.417 74.822a1.75 1.75 0 0 0 -1.75-1.75h-43.334a1.75 1.75 0 0 0 0 3.5h43.334a1.75 1.75 0 0 0 1.75-1.75z"/></g></svg>